<svg width="152" height="152" viewBox="0 0 152 152" fill="none" xmlns="http://www.w3.org/2000/svg">
    <g clip-path="url(#clip0)">
    <path d="M76.0002 0C34.026 0 0 34.026 0 76.0002C0 94.29 6.46464 111.072 17.2296 124.185C18.8899 110.887 32.1724 99.6403 50.7969 94.3135C57.6012 100.653 66.3901 104.5 75.9998 104.5C85.383 104.5 94.0002 100.847 100.735 94.7731C119.521 100.565 132.517 112.47 132.945 126.306C144.793 112.902 152 95.2976 152 76.0002C152 34.026 117.974 0 76.0002 0ZM76.0002 95.5C71.1486 95.5 66.577 94.1671 62.5177 91.8579C52.7349 86.2919 45.9999 74.9005 45.9999 61.7497C45.9999 43.1399 59.4576 27.999 76.0002 27.999C92.5448 27.999 106 43.1399 106 61.7497C106 75.103 99.0544 86.634 89.0286 92.1038C85.079 94.2574 80.6723 95.5 76.0002 95.5Z" fill="#EAA4BD"/>
    </g>
    <defs>
    <clipPath id="clip0">
    <rect width="152" height="152" fill="white"/>
    </clipPath>
    </defs>
    </svg>
